HIERARCHY
ROOT Hips
{
	OFFSET 0.000000 0.000000 0.000000
	CHANNELS 6 Xposition Yposition Zposition Xrotation Yrotation Zrotation
	JOINT LeftUpLeg_virtual
	{
		OFFSET 0.000000 0.000000 0.000000
		CHANNELS 3 Xrotation Yrotation Zrotation
		JOINT LeftUpLeg
		{
			OFFSET 15.427100 -6.655098 0.678600
			CHANNELS 3 Xrotation Yrotation Zrotation
			JOINT LeftLeg
			{
				OFFSET 4.081073 -39.591068 13.024000
				CHANNELS 3 Xrotation Yrotation Zrotation
				JOINT LeftFoot
				{
					OFFSET -4.081074 -37.707932 -15.979700
					CHANNELS 3 Xrotation Yrotation Zrotation
					JOINT LeftToeBase
					{
						OFFSET 5.346399 -15.068900 20.645000
						CHANNELS 3 Xrotation Yrotation Zrotation
						JOINT LeftToe_End
						{
							OFFSET 2.754700 0.931300 11.300900
							CHANNELS 3 Xrotation Yrotation Zrotation
							End Site
							{
								OFFSET 0 0 0
							}
						}
					}
				}
			}
		}
	}
	JOINT RightUpLeg_virtual
	{
		OFFSET 0.000000 0.000000 0.000000
		CHANNELS 3 Xrotation Yrotation Zrotation
		JOINT RightUpLeg
		{
			OFFSET -15.569500 -6.655098 0.678600
			CHANNELS 3 Xrotation Yrotation Zrotation
			JOINT RightLeg
			{
				OFFSET -4.081825 -39.591045 13.023800
				CHANNELS 3 Xrotation Yrotation Zrotation
				JOINT RightFoot
				{
					OFFSET 4.081824 -37.707954 -15.979600
					CHANNELS 3 Xrotation Yrotation Zrotation
					JOINT RightToeBase
					{
						OFFSET -5.346400 -15.068900 20.645000
						CHANNELS 3 Xrotation Yrotation Zrotation
						JOINT RightToe_End
						{
							OFFSET -2.754700 0.931300 11.300900
							CHANNELS 3 Xrotation Yrotation Zrotation
							End Site
							{
								OFFSET 0 0 0
							}
						}
					}
				}
			}
		}
	}
	JOINT Spine_virtual
	{
		OFFSET 0.000000 0.000000 0.000000
		CHANNELS 3 Xrotation Yrotation Zrotation
		JOINT Spine
		{
			OFFSET -0.279200 12.230698 -2.892100
			CHANNELS 3 Xrotation Yrotation Zrotation
			JOINT Spine1
			{
				OFFSET -0.232667 10.192268 -1.242267
				CHANNELS 3 Xrotation Yrotation Zrotation
				JOINT Spine1_split
				{
					OFFSET -0.232667 10.192268 -1.242267
					CHANNELS 3 Xrotation Yrotation Zrotation
					JOINT Spine2
					{
						OFFSET -0.232667 10.192268 -1.242267
						CHANNELS 3 Xrotation Yrotation Zrotation
						JOINT Neck_virtual
						{
							OFFSET 0.000000 0.000000 0.000000
							CHANNELS 3 Xrotation Yrotation Zrotation
							JOINT Neck
							{
								OFFSET -0.418800 17.814194 8.416900
								CHANNELS 3 Xrotation Yrotation Zrotation
								JOINT Head
								{
									OFFSET 0.000000 7.031097 3.806800
									CHANNELS 3 Xrotation Yrotation Zrotation
									JOINT HeadTop_End
									{
										OFFSET 0.000000 24.646606 12.978600
										CHANNELS 3 Xrotation Yrotation Zrotation
										End Site
										{
											OFFSET 0 0 0
										}
									}
								}
							}
						}
						JOINT LeftShoulder_virtual
						{
							OFFSET 0.000000 0.000000 0.000000
							CHANNELS 3 Xrotation Yrotation Zrotation
							JOINT LeftShoulder
							{
								OFFSET 8.476499 7.247704 -3.868750
								CHANNELS 3 Xrotation Yrotation Zrotation
								JOINT LeftShoulder_split
								{
									OFFSET 8.476499 7.247704 -3.868750
									CHANNELS 3 Xrotation Yrotation Zrotation
									JOINT LeftArm
									{
										OFFSET 9.308998 -2.777710 0.208600
										CHANNELS 3 Xrotation Yrotation Zrotation
										JOINT LeftForeArm
										{
											OFFSET 29.972298 0.000000 0.000000
											CHANNELS 3 Xrotation Yrotation Zrotation
											JOINT LeftHand
											{
												OFFSET 26.026505 0.000000 0.000000
												CHANNELS 3 Xrotation Yrotation Zrotation
												End Site
												{
													OFFSET 0 0 0
												}
											}
										}
									}
								}
							}
						}
						JOINT RightShoulder_virtual
						{
							OFFSET 0.000000 0.000000 0.000000
							CHANNELS 3 Xrotation Yrotation Zrotation
							JOINT RightShoulder
							{
								OFFSET -7.570500 7.247704 -3.868750
								CHANNELS 3 Xrotation Yrotation Zrotation
								JOINT RightShoulder_split
								{
									OFFSET -7.570500 7.247704 -3.868750
									CHANNELS 3 Xrotation Yrotation Zrotation
									JOINT RightArm
									{
										OFFSET -9.308998 -2.777710 0.208500
										CHANNELS 3 Xrotation Yrotation Zrotation
										JOINT RightForeArm
										{
											OFFSET -29.972300 0.000000 0.000000
											CHANNELS 3 Xrotation Yrotation Zrotation
											JOINT RightHand
											{
												OFFSET -26.026505 0.000000 0.000000
												CHANNELS 3 Xrotation Yrotation Zrotation
												End Site
												{
													OFFSET 0 0 0
												}
											}
										}
									}
								}
							}
						}
					}
				}
			}
		}
	}
}
MOTION
Frames: 4
Frame Time: 0.03333333
0.639213 87.661499 -1.087437 0.000000 0.000000 0.000000 7.261199 -17.207548 1.463645 -31.858188 5.992599 10.648647 26.713406 6.048458 1.349280 -1.789880 -0.976682 -7.096306 2.646239 -1.936866 -0.744793 0.000000 0.000000 0.000000 8.192497 -18.449818 1.864944 -9.455321 -9.468063 -16.161165 22.949676 -2.500909 2.887528 -19.478062 -6.676827 12.804660 2.698613 2.041325 0.064176 0.000000 0.000000 0.000000 7.932011 -14.017339 1.367387 24.881944 4.984836 -1.263957 2.606438 2.032013 -1.666089 0.562176 1.430605 0.415047 0.000000 0.000000 0.000000 3.758068 1.637429 -0.952100 -14.317220 1.903158 1.710615 -11.562564 10.095294 -2.117431 0.000000 0.000000 0.000000 3.595434 1.989729 -1.110448 6.949524 -21.161039 9.034792 -0.812632 -0.651733 0.864585 -31.566549 -10.763454 -84.806258 -0.299577 -44.580935 -3.102040 0.000000 0.000000 0.000000 4.028664 1.909016 -0.910098 12.131773 25.816356 -20.203276 -4.969483 1.603081 -1.187802 -43.130821 1.206688 85.917626 -0.628334 60.942875 7.624817 0.000000 0.000000 0.000000 
0.671790 87.664795 -1.144310 0.000000 0.000000 0.000000 7.257575 -17.510281 1.514102 -31.893131 5.875001 10.722569 26.855213 6.268321 1.274250 -1.929162 -0.918128 -7.193472 2.762561 -1.932808 -0.764326 0.000000 0.000000 0.000000 8.172843 -18.616596 1.917569 -9.623584 -9.640189 -16.137246 22.949579 -2.429826 2.844362 -19.408876 -6.602533 12.599968 2.917766 2.017669 0.119272 0.000000 0.000000 0.000000 7.866541 -14.317133 1.331696 24.894332 4.940634 -1.211522 2.586954 2.028202 -1.598402 0.533338 1.343907 0.401297 0.000000 0.000000 0.000000 3.786860 1.678891 -0.929632 -14.218518 2.154813 1.606710 -11.661056 10.560389 -2.579376 0.000000 0.000000 0.000000 3.505612 2.004181 -1.077249 6.930343 -20.879822 8.800339 -0.625353 -1.331698 0.992879 -32.072045 -10.929595 -84.592931 -0.687442 -44.763547 -3.366151 0.000000 0.000000 0.000000 4.004853 1.926505 -0.833698 12.019837 25.807959 -19.965116 -5.110281 1.307559 -1.077688 -43.019605 0.420706 86.073183 -1.352151 61.319724 8.214780 0.000000 0.000000 0.000000 
0.729130 87.617630 -1.282764 0.000000 0.000000 0.000000 7.185950 -18.238372 1.574546 -31.931548 5.786717 10.996069 27.153724 6.679446 1.178233 -2.162236 -0.755277 -7.394334 2.885737 -1.915798 -0.806674 0.000000 0.000000 0.000000 8.054303 -19.217967 1.973424 -10.036324 -9.788564 -16.101076 23.058609 -2.082762 2.767466 -19.364778 -6.355357 12.416123 3.039086 2.034322 0.073240 0.000000 0.000000 0.000000 7.729945 -15.068142 1.329169 24.875032 4.897920 -1.078966 2.573798 2.039697 -1.537770 0.515702 1.221474 0.413126 0.000000 0.000000 0.000000 3.835354 1.720781 -0.909964 -14.121291 2.867671 1.269309 -11.811019 11.631601 -3.353718 0.000000 0.000000 0.000000 3.431617 2.052935 -1.037989 6.812230 -20.607483 8.119932 -0.418666 -1.950980 0.913482 -32.258106 -11.787939 -83.397580 -0.646693 -45.147742 -3.295714 0.000000 0.000000 0.000000 4.014837 1.943126 -0.789410 11.696211 25.644469 -19.451617 -5.274704 1.142235 -0.956190 -43.371127 1.051710 85.728259 -1.931669 61.047643 8.559013 0.000000 0.000000 0.000000 
0.820331 87.535103 -1.503132 0.000000 0.000000 0.000000 7.033190 -19.227611 1.645678 -31.974243 5.767193 11.397639 27.522293 7.255238 1.059575 -2.394958 -0.535331 -7.670309 2.975362 -1.886182 -0.850682 0.000000 0.000000 0.000000 7.872345 -20.171739 2.050905 -10.653602 -9.926150 -16.076206 23.333994 -1.473102 2.675908 -19.298966 -5.959428 12.248203 3.062996 2.080437 -0.044576 0.000000 0.000000 0.000000 7.510912 -16.188124 1.373556 24.838495 4.852152 -0.898183 2.585685 2.062665 -1.487077 0.471871 1.048516 0.508941 0.000000 0.000000 0.000000 3.876243 1.759467 -0.881203 -14.040131 3.916228 0.733719 -11.940626 13.082350 -4.274373 0.000000 0.000000 0.000000 3.400473 2.115236 -1.007600 6.614058 -20.347496 7.044323 -0.239196 -2.341725 0.679058 -32.063917 -13.253694 -81.396423 -0.307418 -45.526254 -3.037745 0.000000 0.000000 0.000000 4.057662 1.964865 -0.775246 11.217340 25.369349 -18.749677 -5.435120 1.117231 -0.760956 -44.145394 3.082823 85.018985 -2.335543 60.228936 8.674426 0.000000 0.000000 0.000000 
